#define bingo_width 16
#define bingo_height 32
static unsigned char bingo_bits[] = {
   0xff, 0xff, 0xff, 0xff, 0x3f, 0xe2, 0xbf, 0xea, 0xbf, 0xe2, 0xbf, 0xee,
   0xff, 0xe3, 0xff, 0xff, 0x6d, 0xdb, 0x6d, 0xdb, 0x6d, 0xdb, 0x6d, 0xdb,
   0x6d, 0xdb, 0x6d, 0xdb, 0x6d, 0xdb, 0x6d, 0xdb, 0x6d, 0xdb, 0x6d, 0xdb,
   0x6d, 0xdb, 0x6d, 0xdb, 0x6d, 0xdb, 0x6d, 0xdb, 0x6d, 0xdb, 0xff, 0xff,
   0xff, 0xff, 0xff, 0xff, 0xff, 0xff, 0xff, 0xff, 0xff, 0xff, 0xff, 0xff,
   0xff, 0xff, 0xff, 0xff };
